<?xml version="1.0" encoding="UTF-8" standalone="no"?>
<!-- Created with Inkscape (http://www.inkscape.org/) -->

<svg
   version="1.1"
   id="svg2"
   xml:space="preserve"
   width="432"
   height="144"
   viewBox="0 0 432 144"
   xmlns="http://www.w3.org/2000/svg"
   xmlns:svg="http://www.w3.org/2000/svg"><defs
     id="defs6" /><g
     id="g8"
     transform="matrix(1.3333333,0,0,-1.3333333,0,144)"><g
       id="g10"
       transform="scale(0.1)"><path
         d="M 327.086,422.715 V 320.234 c 0,-17.109 5.566,-41.339 35.73,-41.339 27.61,0 37.59,19.093 37.59,43.293 l -0.465,100.527 c 0,5.625 -2.785,9.062 -6.265,11.035 h 26.914 c -3.481,-1.973 -6.035,-5.41 -6.035,-11.035 l -0.692,-100.027 c 0,-41.575 -23.437,-57.727 -54.992,-57.727 -27.148,0 -61.719,12.715 -61.719,56.016 v 101.738 c 0,5.625 -3.714,9.062 -7.425,11.035 h 44.55 c -3.711,-1.973 -7.191,-5.41 -7.191,-11.035"
         style="fill:#204037;fill-opacity:1;fill-rule:nonzero;stroke:none"
         id="path12" /><path
         d="m 719.211,422.715 c 0,5.625 -2.32,9.062 -6.031,11.035 h 25.758 c -3.489,-1.973 -6.04,-5.41 -6.04,-11.035 V 260.559 c 0,0 -111.371,138.425 -111.371,140.398 V 278.418 c 0,-5.383 2.551,-8.809 6.496,-11.008 h -25.757 c 3.48,2.199 6.035,5.625 6.035,11.008 v 130.605 c 0,9.551 0.23,9.793 -4.176,15.418 -2.324,2.93 -5.574,6.36 -10.441,9.309 h 39.906 l 85.621,-107.637 v 96.602"
         style="fill:#204037;fill-opacity:1;fill-rule:nonzero;stroke:none"
         id="path14" /><path
         d="m 965.625,433.75 c -3.949,-1.973 -6.035,-5.41 -6.035,-11.035 V 278.418 c 0,-5.383 2.086,-8.809 6.035,-11.008 h -42.004 c 3.715,2.199 6.031,5.625 6.031,11.008 v 144.297 c 0,5.625 -2.316,9.062 -6.031,11.035 h 42.004"
         style="fill:#204037;fill-opacity:1;fill-rule:nonzero;stroke:none"
         id="path16" /><path
         d="m 1248.47,421.504 c 2.09,6.355 1.16,9.785 -4.88,12.246 h 28.31 c -6.03,-4.18 -6.49,-5.891 -8.81,-11.758 -3.95,-9.531 -59.87,-159.726 -59.87,-159.726 0,0 -60.56,150.683 -64.97,159.726 -2.78,4.903 -5.56,8.809 -12.53,11.758 H 1177 c -6.03,-2.461 -6.5,-7.598 -4.88,-13.477 0.48,-2.187 39.22,-102.734 39.22,-102.734 0,0 36.9,102.246 37.13,103.965"
         style="fill:#204037;fill-opacity:1;fill-rule:nonzero;stroke:none"
         id="path18" /><path
         d="m 1530.15,412.207 c -4.41,6.367 -9.28,8.32 -18.1,8.809 -6.96,0.488 -39.44,0.488 -39.44,0.488 v -56.27 h 35.03 c 3.25,0 7.19,3.926 8.36,6.856 v -25.918 c -1.17,3.418 -5.11,7.09 -8.36,7.09 h -35.03 v -71.914 c 4.64,-0.723 18.79,-1.719 30.16,-1.219 20.18,0.496 29.47,0 38.06,15.406 l -4.88,-28.125 h -99.77 c 3.94,2.453 6.95,5.129 6.95,11.008 v 144.297 c 0,5.625 -3.24,9.062 -6.95,11.035 h 93.27 l 0.7,-21.543"
         style="fill:#204037;fill-opacity:1;fill-rule:nonzero;stroke:none"
         id="path20" /><path
         d="m 1750.1,421.504 v -63.836 c 0,0 6.5,-0.5 10.45,-0.5 15.78,0 32.49,9.297 32.49,34.004 0,11.25 -6.51,30.82 -29.47,30.82 -6.97,0 -13.47,-0.488 -13.47,-0.488 z m 34.35,-69.707 c 15.78,-1.707 22.74,-12.957 26.21,-18.359 0,0 27.86,-46.465 35.98,-56.25 4.4,-5.86 14.84,-9.778 14.84,-9.778 l -30.17,-0.496 c -8.81,0 -16.47,5.625 -20.65,11.504 -10.43,15.41 -20.64,33.262 -29,46.953 -6.03,9.797 -11.37,20.313 -21.35,20.313 -2.78,0 -10.21,-0.496 -10.21,-0.496 v -66.77 c 0,-5.383 2.56,-8.809 6.5,-11.008 h -41.99 c 3.71,2.199 6.03,5.625 6.03,11.008 v 144.297 c 0,5.625 -2.32,9.062 -6.03,11.035 h 50.12 c 48.02,0 58.92,-24.727 58.92,-41.113 0,-26.407 -22.73,-39.61 -39.2,-40.84"
         style="fill:#204037;fill-opacity:1;fill-rule:nonzero;stroke:none"
         id="path22" /><path
         d="m 2116.03,316.328 c 0,-30.574 -25.52,-51.367 -54.06,-51.367 -21.13,0 -36.42,7.578 -44.55,11.738 l -1.15,41.348 c 4.39,-17.383 18.32,-40.371 42.44,-40.371 22.98,0 29.94,17.363 29.94,29.344 0,23.488 -20.17,26.671 -41.31,38.664 -21.34,12.461 -30.62,25.671 -30.62,44.277 0,33.262 29.47,46.465 50.58,46.465 7.9,0 23.21,-1.719 35.03,-9.055 l 1.17,-36.199 c -3.25,12.969 -16.47,32.539 -38.75,32.539 -17.63,0 -24.59,-12.969 -24.59,-23.496 0,-14.902 9.97,-20.527 31.79,-31.055 21.58,-10.762 44.08,-18.847 44.08,-52.832"
         style="fill:#204037;fill-opacity:1;fill-rule:nonzero;stroke:none"
         id="path24" /><path
         d="m 2339.24,433.75 c -3.95,-1.973 -6.04,-5.41 -6.04,-11.035 V 278.418 c 0,-5.383 2.09,-8.809 6.04,-11.008 h -41.99 c 3.7,2.199 6.03,5.625 6.03,11.008 v 144.297 c 0,5.625 -2.33,9.062 -6.03,11.035 h 41.99"
         style="fill:#204037;fill-opacity:1;fill-rule:nonzero;stroke:none"
         id="path26" /><path
         d="M 2591.23,421.504 V 278.418 c 0,-5.383 2.56,-8.809 6.04,-11.008 h -41.55 c 3.71,2.199 6.04,5.625 6.04,11.008 v 143.086 c -17.17,0 -37.13,-1.719 -37.13,-1.719 -5.57,0 -9.51,-5.625 -11.6,-9.765 v 23.73 h 127.17 v -23.73 c -2.1,4.14 -5.36,9.277 -10.92,9.765 0,0 -21.12,1.719 -38.05,1.719"
         style="fill:#204037;fill-opacity:1;fill-rule:nonzero;stroke:none"
         id="path28" /><path
         d="m 2933.46,433.75 c -7.21,-2.461 -12.54,-9.309 -15.33,-14.934 l -37.11,-74.351 v -66.047 c 0,-5.383 4.39,-8.809 8.11,-11.008 h -46.41 c 3.49,2.199 7.9,5.129 7.9,11.008 v 65.059 l -45.48,78.515 c -3.26,5.867 -5.8,8.321 -12.06,11.758 h 52.43 c -5.8,-2.461 -9.75,-3.684 -3.71,-15.176 l 32.71,-60.176 30.64,63.106 c 3.25,5.391 1.61,10.516 -4.88,12.246 h 33.19"
         style="fill:#204037;fill-opacity:1;fill-rule:nonzero;stroke:none"
         id="path30" /><path
         d="m 469.98,817.328 h 54.469 c -5.156,-2.715 -8.379,-7.473 -8.379,-15.281 v -200.43 c 0,-7.472 3.223,-12.226 8.379,-15.285 h -57.691 c 5.16,3.059 8.379,7.813 8.379,15.285 v 170.867 c 0,4.079 0.648,7.813 0.648,7.813 l -2.902,-7.813 -77.356,-190.906 -77.992,185.477 -2.258,9.168 c 0,0 0,-6.118 0,-9.168 V 601.617 c 0,-7.472 3.551,-12.226 9.024,-15.285 h -35.778 c 4.84,3.059 8.387,7.813 8.387,15.285 v 200.43 c 0,6.449 -5.156,12.566 -10.316,15.281 h 56.722 l 64.461,-155.922 62.203,155.922"
         style="fill:#204037;fill-opacity:1;fill-rule:nonzero;stroke:none"
         id="path32" /><path
         d="m 634.965,817.328 c -5.477,-2.715 -8.379,-7.473 -8.379,-15.281 v -200.43 c 0,-7.472 2.902,-12.226 8.379,-15.285 h -58.34 c 5.16,3.059 8.387,7.813 8.387,15.285 v 200.43 c 0,7.808 -3.227,12.566 -8.387,15.281 h 58.34"
         style="fill:#204037;fill-opacity:1;fill-rule:nonzero;stroke:none"
         id="path34" /><path
         d="m 882.148,750.746 c -19.664,47.219 -57.367,51.973 -72.835,51.973 -55.114,0 -86.379,-42.461 -86.379,-97.153 0,-46.539 22.238,-103.949 88.632,-103.949 15.149,0 51.575,5.438 72.844,51.981 0.641,1.351 -2.902,-48.918 -2.902,-48.918 -26.758,-15.969 -55.438,-21.746 -81.863,-21.746 -63.493,0 -119.899,45.859 -119.899,118.218 0,59.45 41.899,119.911 123.766,119.911 26.426,0 50.593,-5.434 75.734,-17.665 0,0 3.547,-54.007 2.902,-52.652"
         style="fill:#204037;fill-opacity:1;fill-rule:nonzero;stroke:none"
         id="path36" /><path
         d="m 1070.99,817.328 h 58.33 c -5.48,-2.715 -9.02,-7.473 -9.02,-15.281 v -200.43 c 0,-7.472 3.54,-12.226 9.02,-15.285 h -58.33 c 5.16,3.059 8.38,7.813 8.38,15.285 V 705.566 H 979.137 V 601.617 c 0,-7.472 2.898,-12.226 8.379,-15.285 H 929.18 c 5.156,3.059 8.379,7.813 8.379,15.285 v 200.43 c 0,7.808 -3.223,12.566 -8.379,15.281 h 58.336 c -5.481,-2.715 -8.379,-7.473 -8.379,-15.281 v -79.84 h 100.233 v 79.84 c 0,7.808 -3.22,12.566 -8.38,15.281"
         style="fill:#204037;fill-opacity:1;fill-rule:nonzero;stroke:none"
         id="path38" /><path
         d="m 1239.52,817.328 c -5.48,-2.715 -8.38,-7.473 -8.38,-15.281 v -200.43 c 0,-7.472 2.9,-12.226 8.38,-15.285 h -58.34 c 5.16,3.059 8.39,7.813 8.39,15.285 v 200.43 c 0,7.808 -3.23,12.566 -8.39,15.281 h 58.34"
         style="fill:#204037;fill-opacity:1;fill-rule:nonzero;stroke:none"
         id="path40" /><path
         d="m 1484.77,803.398 2.26,-54.007 c -16.43,46.199 -57.37,53.328 -72.52,53.328 -54.78,0 -86.37,-42.461 -86.37,-97.153 0,-46.539 21.91,-103.949 88.63,-103.949 6.77,0 25.78,0.684 40.93,11.215 v 59.102 c 0,7.816 -3.22,12.574 -8.38,15.629 h 57.69 c -4.83,-3.055 -8.37,-7.813 -8.37,-15.629 V 621.66 c 0,-6.785 3.54,-12.906 5.15,-13.926 -27.08,-15.964 -72.84,-24.8 -98.62,-24.8 -64.14,0 -120.86,45.859 -120.86,118.218 0,59.45 42.22,119.911 124.72,119.911 26.43,0 50.28,-6.114 75.74,-17.665"
         style="fill:#204037;fill-opacity:1;fill-rule:nonzero;stroke:none"
         id="path42" /><path
         d="m 1649.12,667.859 c -15.16,37.707 -32.87,83.227 -32.87,83.227 0,0 -21.92,-57.746 -32.24,-83.227 z m 70.9,-64.879 c 3.22,-7.136 5.47,-10.871 16.11,-16.648 h -68.96 c 8.37,4.758 9.98,9.512 7.73,16.648 -0.97,3.399 -9.35,24.122 -18.38,47.215 h -78.96 c -9.66,-23.093 -17.4,-43.14 -18.05,-46.875 -2.9,-8.152 -1.28,-12.91 7.42,-16.988 h -44.47 c 9.01,6.457 11.92,10.188 15.14,16.648 6.13,12.911 90.9,221.485 90.9,221.485 0,0 85.72,-208.574 91.52,-221.485"
         style="fill:#204037;fill-opacity:1;fill-rule:nonzero;stroke:none"
         id="path44" /><path
         d="m 1918.54,802.047 c 0,7.808 -3.24,12.566 -8.38,15.281 h 35.76 c -4.83,-2.715 -8.37,-7.473 -8.37,-15.281 V 576.82 c 0,0 -154.71,192.274 -154.71,194.993 V 601.617 c 0,-7.472 3.55,-12.226 9.04,-15.285 h -35.79 c 4.85,3.059 8.38,7.813 8.38,15.285 V 783.02 c 0,13.246 0.33,13.585 -5.8,21.398 -3.22,4.078 -7.73,8.836 -14.51,12.91 h 55.45 l 118.93,-149.469 v 134.188"
         style="fill:#204037;fill-opacity:1;fill-rule:nonzero;stroke:none"
         id="path46" /><path
         d="m 2210.16,654.273 c 0,-42.46 -35.43,-71.339 -75.1,-71.339 -29.32,0 -50.59,10.535 -61.88,16.308 l -1.6,57.406 c 6.13,-24.113 25.46,-56.046 58.99,-56.046 31.89,0 41.57,24.117 41.57,40.761 0,32.614 -28.04,37.028 -57.37,53.676 -29.65,17.32 -42.54,35.664 -42.54,61.484 0,46.196 40.93,64.54 70.25,64.54 10.96,0 32.25,-2.375 48.67,-12.567 l 1.6,-50.273 c -4.49,18 -22.87,45.175 -53.8,45.175 -24.5,0 -34.17,-18.003 -34.17,-32.605 0,-20.73 13.85,-28.535 44.16,-43.141 29.97,-14.949 61.22,-26.16 61.22,-73.379"
         style="fill:#204037;fill-opacity:1;fill-rule:nonzero;stroke:none"
         id="path48" /><path
         d="M 2338.78,800.336 V 601.617 c 0,-7.472 3.54,-12.226 8.39,-15.285 h -57.7 c 5.15,3.059 8.38,7.813 8.38,15.285 v 198.719 c -23.85,0 -51.58,-2.371 -51.58,-2.371 -7.73,0 -13.22,-7.813 -16.11,-13.586 v 32.949 h 176.63 v -32.949 c -2.91,5.773 -7.41,12.906 -15.15,13.586 0,0 -29.34,2.371 -52.86,2.371"
         style="fill:#204037;fill-opacity:1;fill-rule:nonzero;stroke:none"
         id="path50" /><path
         d="m 2503.75,667.859 c -15.14,37.707 -32.87,83.227 -32.87,83.227 0,0 -21.91,-57.746 -32.23,-83.227 z m 70.91,-64.879 c 3.23,-7.136 5.48,-10.871 16.12,-16.648 h -68.96 c 8.37,4.758 9.98,9.512 7.73,16.648 -0.98,3.399 -9.35,24.122 -18.38,47.215 h -78.96 c -9.67,-23.093 -17.41,-43.14 -18.05,-46.875 -2.91,-8.152 -1.29,-12.91 7.42,-16.988 h -44.49 c 9.02,6.457 11.92,10.188 15.16,16.648 6.12,12.911 90.88,221.485 90.88,221.485 0,0 85.73,-208.574 91.53,-221.485"
         style="fill:#204037;fill-opacity:1;fill-rule:nonzero;stroke:none"
         id="path52" /><path
         d="M 2674.92,800.336 V 601.617 c 0,-7.472 3.54,-12.226 8.37,-15.285 h -57.68 c 5.15,3.059 8.37,7.813 8.37,15.285 v 198.719 c -23.84,0 -51.56,-2.371 -51.56,-2.371 -7.73,0 -13.22,-7.813 -16.12,-13.586 v 32.949 h 176.61 v -32.949 c -2.89,5.773 -7.4,12.906 -15.14,13.586 0,0 -29.33,2.371 -52.85,2.371"
         style="fill:#204037;fill-opacity:1;fill-rule:nonzero;stroke:none"
         id="path54" /><path
         d="m 2908.22,787.434 c -6.11,8.832 -12.87,11.55 -25.13,12.234 -9.67,0.668 -54.79,0.668 -54.79,0.668 v -78.129 h 48.67 c 4.5,0 9.98,5.445 11.6,9.516 v -36.008 c -1.62,4.754 -7.1,9.851 -11.6,9.851 h -48.67 v -99.867 c 6.45,-1.019 26.1,-2.379 41.9,-1.699 28.04,0.68 40.93,0 52.86,21.398 l -6.77,-39.066 h -138.58 c 5.47,3.398 9.66,7.137 9.66,15.285 v 200.43 c 0,7.808 -4.52,12.566 -9.66,15.281 h 129.56 l 0.95,-29.894"
         style="fill:#204037;fill-opacity:1;fill-rule:nonzero;stroke:none"
         id="path56" /><path
         d="M 2928.61,508.555 H 285.953 v 17.863 H 2928.61 v -17.863"
         style="fill:#204037;fill-opacity:1;fill-rule:nonzero;stroke:none"
         id="path58" /></g></g></svg>
